<svg width="18" height="20" viewBox="0 0 18 20" fill="none" xmlns="http://www.w3.org/2000/svg">
<path fill-rule="evenodd" clip-rule="evenodd" d="M0 9.63461C0 4.41169 4.1211 0 9 0C13.8789 0 18 4.41169 18 9.63461C18 12.7081 16.5672 15.4905 14.4 17.2691V17.3423H14.3082C12.807 18.5418 10.9683 19.2692 9 19.2692C7.0317 19.2692 5.193 18.5418 3.6918 17.3423H3.6V17.2691C1.4328 15.4905 0 12.7071 0 9.63461ZM6.41112 14.6793C5.93239 15.0916 5.59923 15.6663 5.4666 16.3085C6.5178 16.9608 7.7256 17.3423 9 17.3423C10.2744 17.3423 11.4822 16.9608 12.5334 16.3085C12.4006 15.6663 12.0674 15.0918 11.5887 14.6795C11.11 14.2672 10.5144 14.0418 9.9 14.0405H8.1C7.48557 14.0417 6.88986 14.267 6.41112 14.6793ZM12.391 12.9217C13.129 13.4474 13.7057 14.1946 14.049 15.0695C15.3693 13.6638 16.2 11.7311 16.2 9.63461C16.2 5.45608 12.9033 1.92692 9 1.92692C5.0967 1.92692 1.8 5.45608 1.8 9.63461C1.8 11.7311 2.6307 13.6638 3.951 15.0695C4.2943 14.1946 4.87104 13.4474 5.60904 12.9217C6.34704 12.3959 7.21351 12.1148 8.1 12.1136H9.9C10.7865 12.1148 11.653 12.3959 12.391 12.9217ZM5.40001 7.7077C5.40001 5.511 6.94801 3.85385 9.00001 3.85385C11.052 3.85385 12.6 5.511 12.6 7.7077C12.6 9.90439 11.052 11.5615 9.00001 11.5615C6.94801 11.5615 5.40001 9.90439 5.40001 7.7077ZM7.20001 7.7077C7.20001 8.84265 7.93981 9.63462 9.00001 9.63462C10.0602 9.63462 10.8 8.84265 10.8 7.7077C10.8 6.57274 10.0602 5.78077 9.00001 5.78077C7.93981 5.78077 7.20001 6.57274 7.20001 7.7077Z" fill="#9B9B9B"/>
</svg>
